<svg preserveAspectRatio="xMidYMid meet" width="174" height="23" overflow="visible" style="display: block;" viewBox="0 0 174 23" fill="none" xmlns="http://www.w3.org/2000/svg">
<path id="Logo" d="M13.0429 2.37603C13.0429 0.475207 11.2471 0 9.82944 0V0.285124C10.6801 0.285124 11.3417 0.570248 11.3417 1.23554C11.3417 1.6157 11.0581 2.18595 10.2075 2.18595C9.5459 2.18595 8.12819 1.80579 7.08854 1.42562C5.85986 0.950413 4.72569 0.570248 3.78055 0.570248C1.89028 0.570248 0.567083 1.99587 0.567083 3.61157C0.567083 5.03719 1.60674 5.5124 1.98479 5.70248L2.0793 5.5124C1.89028 5.32231 1.60674 5.13223 1.60674 4.56198C1.60674 4.18182 1.98479 3.51653 2.92993 3.51653C3.78055 3.51653 4.91472 3.89669 6.42694 4.3719C7.75014 4.75207 9.16784 5.03719 9.92395 5.13223V8.07851L8.50625 9.31405V9.40909L9.92395 10.6446V14.7314C9.16784 15.2066 8.31722 15.3017 7.56111 15.3017C6.1434 15.3017 4.91472 14.9215 3.87507 13.781L7.75014 11.8802V5.32231L3.02444 7.41322C3.4025 6.17769 4.44215 5.32231 5.4818 4.75207L5.38729 4.46694C2.55187 5.22727 0 7.88843 0 11.1198C0 14.9215 3.11896 17.7727 6.61597 17.7727C10.3965 17.7727 12.8539 14.7314 12.8539 11.595H12.6649C12.0978 12.8306 11.2471 13.9711 10.2075 14.5413V10.6446L11.7197 9.40909V9.31405L10.2075 8.07851V5.13223C11.6252 5.13223 13.0429 4.18182 13.0429 2.37603ZM4.82021 12.8306L3.68604 13.4008C3.02444 12.5455 2.64639 11.405 2.64639 9.78926C2.64639 9.12397 2.64639 8.36364 2.83542 7.79339L4.82021 6.93802V12.8306V12.8306ZM14.8387 15.0165L13.61 15.9669L13.799 16.157L14.3661 15.6818L16.4454 17.5826L19.2808 15.6818L19.1863 15.4917L18.4302 15.9669L17.4851 15.0165V8.55372L18.2412 7.98347L19.8479 9.31405V15.1116C19.8479 18.7231 19.0918 19.2934 17.4851 19.8636V20.1488C20.1314 20.2438 22.5888 19.3884 22.5888 14.7314V8.45868L23.4394 7.79339L23.2504 7.60331L22.4943 8.17355L20.1314 6.17769L17.4851 8.17355V0.380165H17.296L13.988 2.66116V2.85124C14.3661 3.04132 14.9332 3.2314 14.9332 4.27686L14.8387 15.0165V15.0165ZM32.1347 13.9711L29.7719 15.7769L27.409 13.876V12.7355L31.8512 9.69421V9.59917L29.5828 6.17769L24.6681 8.83884V15.1116L23.723 15.8719L23.912 16.062L24.7626 15.3967L27.9761 17.7727L32.2292 14.3512L32.1347 13.9711V13.9711ZM27.409 12.3554V7.69835L27.598 7.60331L29.6773 10.9298L27.409 12.3554ZM50.1869 1.52066C50.1869 1.23554 50.0923 0.950413 49.9978 0.665289H49.8088C49.5253 1.42562 49.1472 1.80579 48.2021 1.80579C47.3514 1.80579 46.7844 1.33058 46.4063 0.950413L43.6654 4.08678L43.8544 4.27686L44.7996 3.42149C45.3666 3.89669 45.8392 4.27686 47.1624 4.3719V12.2603L41.5861 2.66116C41.1135 1.90083 40.4519 0.855372 39.1287 0.855372C37.6165 0.855372 36.2933 2.18595 36.4823 4.27686H36.7659C36.8604 3.70661 37.1439 3.04132 37.8055 3.04132C38.2781 3.04132 38.7507 3.51653 39.0342 3.99174V7.1281C37.333 7.1281 36.1988 7.88843 36.1988 9.31405C36.1988 10.0744 36.5769 11.2149 37.711 11.5V11.3099C37.522 11.1198 37.4275 10.9298 37.4275 10.6446C37.4275 10.1694 37.8055 9.78926 38.4671 9.78926H38.9397V13.781C36.9549 13.781 35.3482 14.9215 35.3482 16.8223C35.3482 18.6281 36.8604 19.4835 38.5616 19.3884V19.1983C37.522 19.1033 37.0494 18.6281 37.0494 17.9628C37.0494 17.1074 37.6165 16.7273 38.3726 16.7273C39.1287 16.7273 39.7903 17.2025 40.2629 17.7727L43.0038 14.7314L42.8148 14.5413L42.1532 15.3017C41.1135 14.3512 40.5464 14.0661 39.3178 13.876V4.3719L46.8789 17.6777H47.4459V4.3719C48.8637 4.27686 50.1869 3.13636 50.1869 1.52066V1.52066ZM57.0864 13.9711L54.7235 15.7769L52.3607 13.876V12.7355L56.8028 9.69421V9.59917L54.5345 6.17769L49.6198 8.83884V15.1116L48.6746 15.8719L48.8637 16.062L49.7143 15.3967L52.9278 17.7727L57.1809 14.3512L57.0864 13.9711V13.9711ZM52.3607 12.3554V7.69835L52.5497 7.60331L54.629 10.9298L52.3607 12.3554V12.3554ZM72.4921 7.22314L71.8305 7.69835L70.0348 6.17769L67.9555 8.07851L68.8061 8.93388V16.062L66.5377 14.6364V8.7438L67.2939 8.2686L65.12 6.17769L63.0407 8.07851L63.8914 8.93388V15.7769L63.6078 15.9669L61.623 14.5413V8.83884C61.623 7.50826 60.9614 7.1281 60.2053 6.65289C59.5437 6.17769 59.1657 5.89256 59.1657 5.22727C59.1657 4.65702 59.7328 4.3719 60.0163 4.18182V3.99174C59.2602 3.99174 57.2754 4.75207 57.2754 6.55785C57.2754 7.50826 57.748 7.88843 58.2205 8.36364C58.6931 8.83884 59.1657 9.21901 59.1657 10.0744V15.5868L58.126 16.3471L58.315 16.5372L59.2602 15.7769L61.434 17.6777L63.7968 16.062L66.4432 17.6777L71.4525 14.7314V8.36364L72.6812 7.41322L72.4921 7.22314V7.22314ZM90.0717 1.99587L89.1266 2.85124L87.0473 0.950413L83.9283 3.2314V1.1405H83.6448L83.7393 16.5372C83.4557 16.5372 82.6051 16.3471 81.9435 16.157L81.7545 3.32645C81.7545 2.37603 81.0929 1.04545 79.3916 1.04545C77.6904 1.04545 76.5562 2.37603 76.5562 3.70661H76.8398C76.9343 3.13636 77.2178 2.66116 77.7849 2.66116C78.352 2.66116 78.8246 3.04132 78.8246 4.27686V7.98347C77.1233 8.07851 76.0836 9.02893 76.0836 10.2645C76.0836 11.0248 76.4617 12.1653 77.5959 12.1653V11.9752C77.2178 11.7851 77.1233 11.5 77.1233 11.3099C77.1233 10.7397 77.5959 10.5496 78.352 10.5496H78.73V16.4421C77.3123 16.9174 76.7452 17.9628 76.7452 19.1033C76.7452 20.719 77.9739 21.8595 79.8642 21.8595C81.1874 21.8595 82.3216 21.6694 83.4557 21.3843C84.4009 21.1942 85.6295 20.9091 86.1966 20.9091C86.9527 20.9091 87.2363 21.2893 87.2363 21.7645C87.2363 22.4298 86.9527 22.7149 86.5747 22.8099V23C88.0869 22.7149 89.032 21.7645 89.032 20.3388C89.032 18.9132 87.6143 18.0579 86.1021 18.0579C85.346 18.0579 83.7393 18.343 82.6051 18.5331C81.2819 18.8182 79.9587 19.0083 79.5807 19.0083C78.9191 19.0083 78.1629 18.7231 78.1629 17.7727C78.1629 17.0124 78.8245 16.3471 80.4313 16.3471C81.2819 16.3471 82.3216 16.4421 83.3612 16.7273C84.4954 17.0124 85.535 17.2975 86.4802 17.2975C87.8979 17.2975 89.1266 16.8223 89.1266 14.8264V3.13636L90.2607 2.18595L90.0717 1.99587V1.99587ZM86.1966 7.79339C85.9131 8.07851 85.535 8.36364 85.0625 8.36364C84.5899 8.36364 84.1173 8.07851 83.9283 7.79339V3.61157L84.8734 2.94628L86.1966 4.18182V7.79339ZM86.1966 10.6446C86.0076 10.4545 85.535 10.1694 85.0625 10.1694C84.5899 10.1694 84.1173 10.4545 83.9283 10.6446V8.17355C84.1173 8.36364 84.5899 8.64876 85.0625 8.64876C85.535 8.64876 86.0076 8.36364 86.1966 8.17355V10.6446ZM86.1966 15.1116C86.1966 15.8719 85.7241 16.6322 84.6844 16.6322H83.9283V11.0248C84.1173 10.8347 84.5899 10.5496 85.0625 10.5496C85.535 10.5496 85.9131 10.8347 86.1966 11.0248V15.1116V15.1116ZM99.145 8.36364L96.1206 6.17769L91.4894 8.83884V15.0165L90.5443 15.7769L90.6388 15.9669L91.3949 15.3967L94.4193 17.6777L99.145 14.8264V8.36364V8.36364ZM94.0413 14.3512V7.50826L96.4041 9.21901V15.9669L94.0413 14.3512V14.3512ZM108.124 6.36777H107.935C107.651 6.55785 107.368 6.74793 107.084 6.74793C106.706 6.74793 106.234 6.55785 106.045 6.27273H105.856L104.249 8.07851L102.642 6.27273L99.8066 8.17355L99.9011 8.36364L100.657 7.88843L101.602 8.93388V14.9215L100.374 15.8719L100.563 16.062L101.13 15.5868L103.398 17.4876L106.328 15.4917L106.234 15.3017L105.383 15.7769L104.249 14.8264V8.17355C104.721 8.64876 105.288 9.12397 105.95 9.12397C107.273 9.21901 108.029 7.88843 108.124 6.36777V6.36777ZM119.466 15.4917L116.252 17.6777L111.904 11.0248L115.023 6.17769H115.212C115.59 6.55785 116.158 6.93802 116.819 6.93802C117.481 6.93802 117.953 6.55785 118.237 6.17769H118.426C118.331 8.07851 117.008 9.21901 116.063 9.21901C115.118 9.21901 114.645 8.7438 114.078 8.45868L113.795 8.93388L118.52 15.9669L119.466 15.3967V15.4917V15.4917ZM109.069 15.0165L107.84 15.9669L108.029 16.157L108.596 15.6818L110.676 17.5826L113.511 15.6818L113.322 15.4917L112.566 15.9669L111.621 15.0165V0.380165H111.526L108.124 2.66116V2.85124C108.502 3.04132 109.069 3.13636 109.069 4.27686V15.0165V15.0165ZM135.155 2.37603C135.155 0.475207 133.359 0 131.941 0V0.285124C132.792 0.285124 133.454 0.570248 133.454 1.23554C133.454 1.6157 133.17 2.18595 132.319 2.18595C131.658 2.18595 130.24 1.80579 129.2 1.42562C127.972 1.04545 126.838 0.665289 125.892 0.665289C124.002 0.665289 122.679 2.09091 122.679 3.70661C122.679 5.13223 123.719 5.60744 124.097 5.79752L124.191 5.60744C123.908 5.41736 123.624 5.22727 123.624 4.65702C123.624 4.27686 124.002 3.61157 124.947 3.61157C125.798 3.61157 126.932 3.99174 128.444 4.46694C129.768 4.84711 131.185 5.13223 131.941 5.22727V8.17355L130.524 9.40909V9.50413L131.941 10.7397V14.8264C131.185 15.3017 130.335 15.3967 129.578 15.3967C128.161 15.3967 126.932 15.0165 125.892 13.876L129.768 11.9752V5.32231L125.042 7.41322C125.514 6.17769 126.554 5.32231 127.499 4.65702L127.405 4.46694C124.569 5.22727 122.017 7.79339 122.017 11.0248C122.017 14.8264 125.136 17.6777 128.633 17.6777C132.414 17.6777 134.871 14.6364 134.871 11.5H134.682C134.115 12.7355 133.265 13.876 132.225 14.4463V10.5496L133.737 9.31405V9.21901L132.319 7.98347V5.13223C133.737 5.13223 135.155 4.18182 135.155 2.37603V2.37603ZM126.932 12.8306L125.798 13.4008C125.136 12.5455 124.758 11.405 124.758 9.78926C124.758 9.12397 124.853 8.36364 125.042 7.79339L127.027 6.93802L126.932 12.8306V12.8306ZM138.463 1.42562H138.368L136.478 3.04132V3.13636L138.085 4.94215H138.274L140.164 3.32645V3.2314L138.463 1.42562V1.42562ZM141.298 15.4917L140.542 15.9669L139.597 15.0165V8.45868L140.542 7.79339L140.353 7.60331L139.691 8.17355L137.99 6.17769L135.249 8.07851L135.438 8.36364L136.1 7.88843L136.951 8.93388V15.1116L135.722 16.062L135.816 16.2521L136.478 15.7769L138.557 17.6777L141.393 15.7769L141.298 15.4917V15.4917ZM157.082 15.3967L156.42 15.8719L155.381 14.9215V8.45868L156.326 7.69835L156.137 7.50826L155.381 8.17355L153.207 6.17769L150.372 8.17355L148.198 6.17769L145.551 8.17355L143.85 6.17769L141.109 8.07851L141.204 8.36364L141.865 7.88843L142.81 8.93388V15.1116L142.054 15.8719L144.228 17.6777L146.307 15.7769L145.457 14.9215V8.45868L146.307 7.88843L147.725 9.21901V14.9215L146.969 15.6818L149.143 17.4876L151.222 15.5868L150.372 14.7314V8.45868L151.128 7.98347L152.64 9.31405V15.0165L151.978 15.6818L154.152 17.6777L157.082 15.6818V15.3967V15.3967ZM165.305 13.9711L162.942 15.7769L160.579 13.876V12.7355L165.021 9.69421V9.59917L162.753 6.17769L157.838 8.83884V15.3017L161.146 17.6777L165.399 14.2562L165.305 13.9711V13.9711ZM160.579 12.3554V7.69835L160.768 7.60331L162.847 10.9298L160.579 12.3554V12.3554ZM173.905 11.5L172.11 10.0744C173.338 9.02893 173.811 7.60331 173.811 6.65289V6.08264H173.622C173.433 6.55785 173.055 7.03306 172.299 7.03306C171.543 7.03306 171.07 6.65289 170.597 6.08264L166.344 8.45868V11.8802L167.951 13.1157C166.344 14.5413 166.061 15.4917 166.061 16.2521C166.061 17.2025 166.533 17.8678 167.29 18.1529L167.384 17.9628C167.195 17.7727 167.006 17.6777 167.006 17.2025C167.006 16.9174 167.384 16.4421 168.14 16.4421C169.085 16.4421 169.652 17.1074 169.936 17.3926L174 14.9215V11.5H173.905V11.5ZM172.866 8.64876C172.204 9.78926 170.787 10.9298 169.936 11.5L168.896 10.6446V7.31818C169.274 8.2686 170.314 9.02893 171.354 9.02893C172.015 9.02893 172.393 8.93388 172.866 8.64876V8.64876ZM171.259 16.2521C170.787 15.2066 169.652 14.4463 168.518 14.4463C168.235 14.4463 167.479 14.4463 166.722 14.9215C167.195 14.1612 168.424 12.8306 170.03 11.8802L171.165 12.8306L171.259 16.2521V16.2521Z" fill="var(--fill-0, #121212)"/>
</svg>
